<svg width="120" height="25" viewBox="0 0 120 25" fill="none" xmlns="http://www.w3.org/2000/svg">
<path d="M13.0161 0C20.2025 0 26.0281 5.5795 26.0281 12.4623C26.0281 19.3452 20.2025 24.9247 13.0161 24.9247C5.82971 24.9247 0.00390625 19.3452 0.00390625 12.4623C0.00390625 5.5795 5.82971 0 13.0161 0Z" fill="#00AED6"/>
<path fill-rule="evenodd" clip-rule="evenodd" d="M20.6066 12.0781C20.5074 10.492 19.0976 9.27589 17.4403 9.34667H9.22095C8.92151 9.34667 8.67883 9.11431 8.67883 8.82743C8.67883 8.54072 8.92151 8.30818 9.22095 8.30818H17.5487C17.5001 7.23323 16.7339 6.31066 15.6511 6.02341C13.2234 5.60816 10.738 5.60816 8.31007 6.02341C6.93039 6.34821 5.89818 7.4479 5.70771 8.79637C5.32822 11.2407 5.32822 13.7254 5.70771 16.1699C5.99824 17.5968 7.18199 18.7015 8.67883 18.9427C11.6885 19.3063 14.734 19.3063 17.7439 18.9427C19.0846 18.6825 20.0994 17.6269 20.2595 16.3256C20.5349 14.9258 20.6512 13.5019 20.6066 12.0781ZM17.8956 13.8229V14.2796C17.8956 14.5665 17.6529 14.7991 17.3535 14.7991C17.0541 14.7991 16.8114 14.5665 16.8114 14.2796V13.8229C16.6362 13.6764 16.537 13.4638 16.5403 13.2412C16.5403 12.8111 16.9043 12.4623 17.3535 12.4623C17.8027 12.4623 18.1669 12.8111 18.1669 13.2412C18.1643 13.4627 18.0663 13.6732 17.8956 13.8229Z" fill="white"/>
<path d="M63.0908 11.0602C63.1089 8.8751 61.2736 7.08971 58.9922 7.07255C56.7105 7.0554 54.8464 8.81299 54.8286 10.9981C54.8106 13.1834 56.6458 14.9688 58.9274 14.9859C58.9489 14.9861 58.9705 14.9861 58.9922 14.9859C61.1569 15.097 63.0059 13.5064 63.122 11.433C63.1289 11.309 63.1294 11.1844 63.1234 11.0602H63.0908ZM50.8162 11.0602C50.8162 6.90627 54.2428 3.73865 58.9922 3.73865C63.7416 3.73865 67.168 6.92704 67.168 11.0602C67.168 15.1936 63.774 18.3922 58.9922 18.3922C54.2102 18.3922 50.8162 15.204 50.8162 11.0602Z" fill="black"/>
<path d="M44.3098 11.8185C44.3098 13.532 42.4881 14.934 40.1784 14.934C38.0573 15.1394 36.164 13.659 35.9497 11.6273C35.9279 11.4217 35.9242 11.2146 35.9388 11.0084C35.9388 8.7444 37.6736 7.18668 40.3411 7.18668C42.5099 7.18668 44.3098 8.60936 44.3098 10.2191V11.8185ZM44.4725 3.72838V5.36915C43.1528 4.22144 41.4048 3.63341 39.6254 3.73867C35.4183 3.77604 32.0395 7.07258 32.0785 11.1019C32.1174 15.1311 35.5593 18.3673 39.7664 18.33C41.4985 18.4044 43.1845 17.7833 44.4183 16.6164V18.0185C44.4183 19.9189 42.7049 21.3106 40.4495 21.3106C38.7271 21.4297 37.0303 20.8579 35.7652 19.7321L33.1303 22.1622C35.106 24.0196 37.7913 25.0182 40.5579 24.9247C45.1772 24.9247 48.3436 21.9546 48.3436 17.9978V3.72838H44.4725Z" fill="black"/>
<path d="M69.5532 4.15413H73.4352V5.37965H73.4894C74.7621 4.26859 76.4427 3.68598 78.1629 3.75946C82.388 3.91184 85.6841 7.3158 85.5249 11.3621C85.3742 15.1949 82.1648 18.2688 78.1629 18.4131C76.5195 18.4495 74.9151 17.9312 73.6304 16.9489V23.8862H69.5858L69.5532 4.15413ZM77.534 7.18671C75.3654 7.18671 73.5978 8.63033 73.5978 10.1983V11.9534C73.5978 13.6254 75.3436 15.0068 77.5557 15.0068C79.8104 15.1181 81.7326 13.4577 81.8486 11.2982C81.9649 9.13892 80.2314 7.29792 77.9767 7.18671C77.8364 7.17967 77.696 7.17967 77.5557 7.18671H77.534Z" fill="black"/>
<path d="M93.29 9.72057C95.9465 9.3779 96.7381 9.01447 96.7381 8.30819C96.7381 7.39428 95.7297 6.8438 94.1683 6.8438C92.4851 6.71201 90.9525 7.77432 90.5573 9.34667L86.7405 8.58857C87.2826 5.76379 90.3188 3.74911 94.0598 3.74911C98.2888 3.74911 100.913 5.82608 100.913 9.19104V18.008H97.2804V16.4709H97.226C95.9935 17.7997 94.1868 18.5054 92.3356 18.3819C89.1369 18.3819 86.914 16.7099 86.914 14.2278C86.914 11.7457 88.7356 10.3229 93.29 9.72057ZM97.0635 11.185H97.0093C96.6513 11.6834 95.9249 11.9743 93.9189 12.3065C91.5441 12.7324 90.6658 13.1789 90.6658 13.989C90.6658 14.7991 91.3705 15.1937 92.8996 15.1937C95.2309 15.1937 97.031 14.1551 97.031 12.8362L97.0635 11.185Z" fill="black"/>
<path d="M108.232 17.2292L101.542 4.15411H105.998L110.39 13.21H110.455L114.792 4.15411H119.271L109.251 23.8862H104.795L108.232 17.2292Z" fill="black"/>
</svg>
